STARTFONT 2.1
FONT -Adobe-ITC Bookman-Demi-I-Normal--25-180-100-100-P-151-ISO8859-1
SIZE 18 100 100
FONTBOUNDINGBOX 39 24 -5 -6

STARTPROPERTIES 26
_DEC_DEVICE_FONTNAMES "PS=Bookman-DemiItalic"
FONTNAME_REGISTRY ""
FAMILY_NAME "ITC Bookman"
FOUNDRY "Adobe"
WEIGHT_NAME "Demi"
SLANT "I"
SETWIDTH_NAME "Normal"
ADD_STYLE_NAME ""
PIXEL_SIZE 25
POINT_SIZE 180
RESOLUTION_X 100
RESOLUTION_Y 100
SPACING "P"
AVERAGE_WIDTH 151
CHARSET_REGISTRY "ISO8859"
CHARSET_ENCODING "1"
CHARSET_COLLECTIONS "ASCII ISO8859-1 ADOBE-STANDARD"
FULL_NAME "ITC Bookman Demi Italic"
COPYRIGHT "Copyright (c) 1991 Adobe Systems, Inc."
CAP_HEIGHT 17
X_HEIGHT 13
WEIGHT 10
QUAD_WIDTH 17
DEFAULT_CHAR 0
FONT_DESCENT 6
FONT_ASCENT 18
ENDPROPERTIES

CHARS 190

STARTCHAR space
ENCODING 32
SWIDTH 340 0
DWIDTH 9 0
BBX 1 1 0 0
BITMAP
00
ENDCHAR

STARTCHAR exclam
ENCODING 33
SWIDTH 320 0
DWIDTH 8 0
BBX 7 17 2 0
BITMAP
1C
3E
7E
7E
7E
7C
3C
38
38
30
30
00
70
F8
F8
F8
70
ENDCHAR

STARTCHAR quotedbl
ENCODING 34
SWIDTH 380 0
DWIDTH 10 0
BBX 7 7 2 10
BITMAP
EE
EE
EE
EE
EE
EE
EE
ENDCHAR

STARTCHAR numbersign
ENCODING 35
SWIDTH 600 0
DWIDTH 17 0
BBX 13 17 2 0
BITMAP
0630
0630
0E70
0C60
0C60
7FF8
7FF8
18C0
18C0
18C0
FFF0
FFF0
3180
3180
6300
6300
6300
ENDCHAR

STARTCHAR dollar
ENCODING 36
SWIDTH 680 0
DWIDTH 17 0
BBX 16 21 1 -3
BITMAP
00E0
00E0
07F8
0FFE
1E1F
3C0F
3C06
3F00
3FC0
1FF0
07FC
00FE
003E
701E
F81E
FC3C
7FF8
3FE0
0700
0700
0700
ENDCHAR

STARTCHAR percent
ENCODING 37
SWIDTH 880 0
DWIDTH 22 0
BBX 19 17 2 0
BITMAP
1E0080
3F0180
738380
E38700
E38E00
E39C00
E73800
7E7000
3CE780
01CFC0
039CE0
0738E0
0E38E0
1C38E0
3839C0
301F80
200F00
ENDCHAR

STARTCHAR ampersand
ENCODING 38
SWIDTH 980 0
DWIDTH 25 0
BBX 23 17 1 0
BITMAP
03F000
07F800
0F3C60
1E3CF0
1E3CF0
1E78F0
0FF070
1FE070
7FF060
79F8E0
F0FDC0
F07F84
F03F0E
F83E1E
FC7FBC
7FE7FC
1FC3F0
ENDCHAR

STARTCHAR quoteright
ENCODING 39
SWIDTH 320 0
DWIDTH 8 0
BBX 5 7 3 10
BITMAP
70
F8
F8
F8
30
70
60
ENDCHAR

STARTCHAR parenleft
ENCODING 40
SWIDTH 260 0
DWIDTH 7 0
BBX 9 22 1 -5
BITMAP
0380
0F80
1F00
1E00
3C00
3C00
3C00
7800
7800
7800
7800
7800
F000
F000
F000
F000
F000
F000
7000
7800
7C00
1C00
ENDCHAR

STARTCHAR parenright
ENCODING 41
SWIDTH 260 0
DWIDTH 7 0
BBX 9 22 -2 -5
BITMAP
1C00
1F00
0F00
0700
0780
0780
0780
0780
0780
0780
0F00
0F00
0F00
0F00
0F00
1E00
1E00
1E00
3C00
7C00
F800
E000
ENDCHAR

STARTCHAR asterisk
ENCODING 42
SWIDTH 460 0
DWIDTH 12 0
BBX 9 9 3 8
BITMAP
6300
7700
3600
DD80
FF80
DD80
3600
7700
6300
ENDCHAR

STARTCHAR plus
ENCODING 43
SWIDTH 600 0
DWIDTH 15 0
BBX 13 13 1 0
BITMAP
0700
0700
0700
0700
0700
FFF8
FFF8
FFF8
0700
0700
0700
0700
0700
ENDCHAR

STARTCHAR comma
ENCODING 44
SWIDTH 340 0
DWIDTH 8 0
BBX 5 8 1 -3
BITMAP
70
F8
F8
F8
78
70
E0
C0
ENDCHAR

STARTCHAR minus
ENCODING 45
SWIDTH 600 0
DWIDTH 15 0
BBX 13 3 1 5
BITMAP
FFF8
FFF8
FFF8
ENDCHAR

STARTCHAR period
ENCODING 46
SWIDTH 340 0
DWIDTH 8 0
BBX 5 5 1 0
BITMAP
70
F8
F8
F8
70
ENDCHAR

STARTCHAR slash
ENCODING 47
SWIDTH 360 0
DWIDTH 9 0
BBX 9 20 0 -3
BITMAP
0380
0380
0380
0700
0700
0700
0E00
0E00
0E00
1C00
1C00
1C00
3800
3800
3800
7000
7000
7000
E000
E000
ENDCHAR

STARTCHAR zero
ENCODING 48
SWIDTH 680 0
DWIDTH 17 0
BBX 15 17 1 0
BITMAP
07F0
0FFC
1E3C
3C3E
7C1E
781E
F81E
F01E
F01E
F01E
F03E
F03C
F07C
F878
78F0
7FE0
1FC0
ENDCHAR

STARTCHAR one
ENCODING 49
SWIDTH 680 0
DWIDTH 17 0
BBX 11 17 2 0
BITMAP
03C0
3FC0
3FC0
07C0
0780
0780
0780
0780
0F80
0F80
0F00
0F00
0F00
0F00
1F00
FFE0
FFE0
ENDCHAR

STARTCHAR two
ENCODING 50
SWIDTH 680 0
DWIDTH 17 0
BBX 15 17 1 0
BITMAP
03F0
0FFC
1E7C
3C3E
3C3E
3C3E
187C
007C
00F8
01F0
03E0
07C0
0F0C
3E1C
FFF8
FFF8
FFF0
ENDCHAR

STARTCHAR three
ENCODING 51
SWIDTH 680 0
DWIDTH 17 0
BBX 14 17 2 0
BITMAP
07F0
1FF8
3E7C
3C3C
183C
007C
00FC
07F0
07F0
00F8
007C
607C
F07C
F0F8
F9F8
7FF0
1FC0
ENDCHAR

STARTCHAR four
ENCODING 52
SWIDTH 680 0
DWIDTH 17 0
BBX 16 17 1 0
BITMAP
003C
007C
00FC
01FC
03FC
0778
0E78
1C78
38F0
78F0
FFFF
FFFF
7FFE
01E0
01E0
07F8
07F8
ENDCHAR

STARTCHAR five
ENCODING 53
SWIDTH 680 0
DWIDTH 17 0
BBX 14 17 2 0
BITMAP
1FFC
1FFC
1FF8
3800
3800
3BE0
7FF0
7FF8
78FC
307C
007C
607C
F078
F0F8
F9F0
7FE0
1F80
ENDCHAR

STARTCHAR six
ENCODING 54
SWIDTH 680 0
DWIDTH 17 0
BBX 14 17 2 0
BITMAP
07F8
0FFC
1E3C
3C3C
7C18
7800
FBF0
FFF8
FC7C
F83C
F03C
F03C
F07C
F878
78F8
7FF0
1FC0
ENDCHAR

STARTCHAR seven
ENCODING 55
SWIDTH 680 0
DWIDTH 17 0
BBX 14 17 2 0
BITMAP
7FFC
7FFC
FFFC
F038
E070
00E0
01E0
03C0
07C0
0780
0F80
0F00
1F00
1F00
3E00
3E00
3E00
ENDCHAR

STARTCHAR eight
ENCODING 56
SWIDTH 680 0
DWIDTH 17 0
BBX 14 17 2 0
BITMAP
07F0
1FF8
3C3C
781C
781C
7C3C
7FF8
3FE0
1FF0
7FF8
F1FC
E07C
E03C
F03C
F878
7FF0
1FC0
ENDCHAR

STARTCHAR nine
ENCODING 57
SWIDTH 680 0
DWIDTH 17 0
BBX 15 17 1 0
BITMAP
07F0
1FFC
3E3C
3C3E
7C1E
781E
781E
783E
7C7E
3FFE
1FBE
003C
607C
F078
F1F0
7FE0
3F80
ENDCHAR

STARTCHAR colon
ENCODING 58
SWIDTH 340 0
DWIDTH 8 0
BBX 7 13 1 0
BITMAP
1C
3E
3E
3E
1C
00
00
00
70
F8
F8
F8
70
ENDCHAR

STARTCHAR semicolon
ENCODING 59
SWIDTH 340 0
DWIDTH 8 0
BBX 7 16 1 -3
BITMAP
1C
3E
3E
3E
1C
00
00
00
70
F8
F8
F8
78
70
E0
C0
ENDCHAR

STARTCHAR less
ENCODING 60
SWIDTH 620 0
DWIDTH 15 0
BBX 12 11 1 1
BITMAP
00F0
03F0
0FC0
3F00
7800
F000
7800
3F00
0FC0
03F0
00F0
ENDCHAR

STARTCHAR equal
ENCODING 61
SWIDTH 600 0
DWIDTH 15 0
BBX 13 8 1 3
BITMAP
FFF8
FFF8
FFF8
0000
0000
FFF8
FFF8
FFF8
ENDCHAR

STARTCHAR greater
ENCODING 62
SWIDTH 620 0
DWIDTH 15 0
BBX 12 11 2 1
BITMAP
F000
FC00
3F00
0FC0
01E0
00F0
01E0
0FC0
3F00
FC00
F000
ENDCHAR

STARTCHAR question
ENCODING 63
SWIDTH 620 0
DWIDTH 15 0
BBX 12 17 2 0
BITMAP
1FC0
3FE0
79F0
F0F0
F0F0
F1F0
61E0
03C0
0780
0F00
0C00
0000
1C00
3E00
3E00
3E00
1C00
ENDCHAR

STARTCHAR at
ENCODING 64
SWIDTH 780 0
DWIDTH 20 0
BBX 18 17 1 0
BITMAP
03F800
0FFE00
1C0F00
380780
71DB80
73F9C0
E739C0
EE39C0
EC31C0
EC3180
EC3380
EE7300
77BE40
7B18C0
3C0380
1FFF00
07FC00
ENDCHAR

STARTCHAR A
ENCODING 65
SWIDTH 720 0
DWIDTH 18 0
BBX 19 17 -1 0
BITMAP
003E00
003E00
007E00
007E00
00EE00
00CF00
01CF00
038F00
038F00
07FF00
07FF80
0E0F80
0E0780
1C0780
3C07C0
FE1FE0
FE1FE0
ENDCHAR

STARTCHAR B
ENCODING 66
SWIDTH 720 0
DWIDTH 18 0
BBX 18 17 0 0
BITMAP
3FFF00
3FFF80
0F8F80
0F87C0
0F07C0
0F07C0
0F0F80
1FFF00
1FFF00
1E0F80
1E07C0
1E07C0
1E07C0
3E0F80
3E1F80
FFFF00
FFFC00
ENDCHAR

STARTCHAR C
ENCODING 67
SWIDTH 700 0
DWIDTH 17 0
BBX 16 17 1 0
BITMAP
03FB
0FFF
1F1F
3E07
3C07
7C03
7800
7800
F800
F800
F800
F802
7807
7C0F
3E3E
1FFC
0FF0
ENDCHAR

STARTCHAR D
ENCODING 68
SWIDTH 760 0
DWIDTH 19 0
BBX 19 17 0 0
BITMAP
3FFE00
3FFF00
0F8F80
0F87C0
0F03C0
0F03E0
0F03E0
1F03E0
1F03E0
1E03C0
1E03C0
1E07C0
1E0780
3E0F80
3E1F00
FFFE00
FFF800
ENDCHAR

STARTCHAR E
ENCODING 69
SWIDTH 720 0
DWIDTH 18 0
BBX 18 17 0 0
BITMAP
3FFF00
3FFF80
0F8780
0F81C0
0F18C0
0F1800
0F3800
1FF800
1FF800
1E7000
1E3000
1E3000
1E0180
3E0380
3E0F00
FFFF00
FFFE00
ENDCHAR

STARTCHAR F
ENCODING 70
SWIDTH 660 0
DWIDTH 17 0
BBX 18 17 0 0
BITMAP
3FFF00
3FFF80
0F8780
0F81C0
0F18C0
0F1800
0F3800
1FF800
1FF800
1E7000
1E3000
1E3000
1E0000
3E0000
3E0000
FF8000
FF8000
ENDCHAR

STARTCHAR G
ENCODING 71
SWIDTH 760 0
DWIDTH 19 0
BBX 18 17 1 0
BITMAP
03FB00
0FFF00
1F1F00
3E0700
3C0700
7C0300
780000
780000
F83FC0
F83FC0
F81F80
F80F00
781F00
7C1E00
3E3E00
1FFE00
0FEE00
ENDCHAR

STARTCHAR H
ENCODING 72
SWIDTH 800 0
DWIDTH 20 0
BBX 21 17 0 0
BITMAP
3FEFF8
3FEFF8
0F83E0
0F83E0
0F03C0
0F03C0
0F03C0
1FFFC0
1FFFC0
1E0780
1E0780
1E0780
1E0780
3E0F80
3E0F80
FFBFE0
FFBFE0
ENDCHAR

STARTCHAR I
ENCODING 73
SWIDTH 380 0
DWIDTH 10 0
BBX 11 17 0 0
BITMAP
3FE0
3FE0
0F80
0F80
0F00
0F00
0F00
1F00
1F00
1E00
1E00
1E00
1E00
3E00
3E00
FF80
FF80
ENDCHAR

STARTCHAR J
ENCODING 74
SWIDTH 620 0
DWIDTH 15 0
BBX 16 17 0 0
BITMAP
01FF
01FF
007C
007C
0078
0078
0078
00F8
00F8
70F0
F8F0
F8F0
F8F0
F1F0
71F0
7FE0
3F80
ENDCHAR

STARTCHAR K
ENCODING 75
SWIDTH 780 0
DWIDTH 19 0
BBX 20 17 0 0
BITMAP
3FEFF0
3FEFF0
0F87C0
0F8F00
0F1E00
0F3C00
0F7800
1FFC00
1FFC00
1FBE00
1F3E00
1E1F00
1E1F00
3E0F80
3E0FC0
FFBFE0
FFBFE0
ENDCHAR

STARTCHAR L
ENCODING 76
SWIDTH 640 0
DWIDTH 16 0
BBX 17 17 0 0
BITMAP
3FE000
3FE000
0F8000
0F8000
0F0000
0F0000
0F0000
1F0000
1F0000
1E0000
1E0000
1E0000
1E0180
3E0380
3E0F00
FFFF00
FFFE00
ENDCHAR

STARTCHAR M
ENCODING 77
SWIDTH 860 0
DWIDTH 21 0
BBX 23 17 0 0
BITMAP
3FC1FE
3FC1FE
0FE3F8
0FE3F8
0DE7F0
0DE6F0
0DEEF0
1DECF0
1DFDF0
19F9E0
19F9E0
19F1E0
18F1E0
38E3E0
38E3E0
FEEFF8
FECFF8
ENDCHAR

STARTCHAR N
ENCODING 78
SWIDTH 740 0
DWIDTH 18 0
BBX 19 17 0 0
BITMAP
3FC7E0
3FC7E0
0FE1C0
0FE180
0DE180
0DF380
0CF380
1CFB00
1CFB00
187F00
187F00
187F00
183F00
383E00
381E00
FE1E00
FE1E00
ENDCHAR

STARTCHAR O
ENCODING 79
SWIDTH 760 0
DWIDTH 19 0
BBX 18 17 1 0
BITMAP
03FC00
0FFE00
1F1F00
3E0F80
3C0780
7C07C0
7807C0
7807C0
F807C0
F80780
F80780
F80F80
780F00
7C1F00
3E3E00
1FFC00
0FF000
ENDCHAR

STARTCHAR P
ENCODING 80
SWIDTH 640 0
DWIDTH 16 0
BBX 17 17 0 0
BITMAP
3FFE00
3FFF00
0F8F80
0F8780
0F0780
0F0780
0F0F00
1F3E00
1FFC00
1FF000
1E0000
1E0000
1E0000
3E0000
3E0000
FF8000
FF8000
ENDCHAR

STARTCHAR Q
ENCODING 81
SWIDTH 760 0
DWIDTH 19 0
BBX 18 22 1 -5
BITMAP
03FC00
0FFE00
1F1F00
3E0F80
3C0780
7C07C0
7807C0
7807C0
F807C0
F80780
F80780
F8FF80
79FF00
7F1F00
3F3E00
1FFE00
0FFF00
600F00
F01F00
F87E00
7FFC00
1FE000
ENDCHAR

STARTCHAR R
ENCODING 82
SWIDTH 740 0
DWIDTH 18 0
BBX 19 17 0 0
BITMAP
3FFF00
3FFF80
0F8F80
0F87C0
0F07C0
0F07C0
0F0F80
1FFF00
1FF800
1E7800
1E3C00
1E3E00
1E1E00
3E0F00
3E0F80
FF87E0
FF87E0
ENDCHAR

STARTCHAR S
ENCODING 83
SWIDTH 700 0
DWIDTH 17 0
BBX 15 17 2 0
BITMAP
0FE6
1FFE
3E3E
3C1E
7C0E
7E0E
7FE0
3FF8
1FFC
0FFE
C0FE
C03E
E03E
F03C
FCFC
7FF8
6FE0
ENDCHAR

STARTCHAR T
ENCODING 84
SWIDTH 700 0
DWIDTH 17 0
BBX 17 17 1 0
BITMAP
3FFF00
7FFF00
73E780
E3E380
C3C180
C3C180
03C000
07C000
07C000
078000
078000
078000
078000
0F8000
0F8000
3FE000
3FE000
ENDCHAR

STARTCHAR U
ENCODING 85
SWIDTH 740 0
DWIDTH 18 0
BBX 17 17 2 0
BITMAP
FF9F80
FF9F80
3E0700
3E0600
3C0600
3C0E00
3C0E00
7C0C00
780C00
780C00
F81C00
F81C00
F81800
FC3800
7FF000
7FE000
1F8000
ENDCHAR

STARTCHAR V
ENCODING 86
SWIDTH 660 0
DWIDTH 17 0
BBX 18 17 1 0
BITMAP
FF9FC0
FF9FC0
3E0700
3E0600
3E0E00
1E0C00
1E1C00
1F1800
1F3800
0F3000
0F7000
0F6000
0FE000
0FC000
07C000
078000
078000
ENDCHAR

STARTCHAR W
ENCODING 87
SWIDTH 1000 0
DWIDTH 25 0
BBX 25 17 1 0
BITMAP
FFBFBF80
FFBFBF80
3E1E0E00
3E1E0C00
3E1E1C00
1E3E1800
1E3F3800
1E7F3000
1F6F7000
0F6F6000
0FCFE000
0FCFC000
0FCFC000
0F8F8000
07878000
07070000
07070000
ENDCHAR

STARTCHAR X
ENCODING 88
SWIDTH 740 0
DWIDTH 19 0
BBX 20 17 0 0
BITMAP
7F8FF0
7F8FF0
1F07C0
0F0700
078E00
03DC00
03F800
01F000
00F000
01F800
03FC00
073C00
0F3E00
1E1F00
7C1F80
FF3FE0
FF3FE0
ENDCHAR

STARTCHAR Y
ENCODING 89
SWIDTH 660 0
DWIDTH 17 0
BBX 18 17 1 0
BITMAP
FF9FC0
FF9FC0
3E0F00
1F0E00
0F1C00
0F9C00
07B800
07F000
07E000
03E000
03C000
03C000
03C000
07C000
07C000
1FF000
1FF000
ENDCHAR

STARTCHAR Z
ENCODING 90
SWIDTH 680 0
DWIDTH 17 0
BBX 18 17 0 0
BITMAP
1FFF80
1FFFC0
3F0FC0
3C1F80
383F00
307E00
00FC00
01F800
03F000
07E000
0FC000
1F8180
3F0380
7E0780
FC1F00
FFFF00
7FFE00
ENDCHAR

STARTCHAR bracketleft
ENCODING 91
SWIDTH 260 0
DWIDTH 7 0
BBX 8 22 0 -5
BITMAP
3F
3F
3C
3C
3C
3C
3C
3C
78
78
78
78
78
78
F0
F0
F0
F0
F0
F0
FC
FC
ENDCHAR

STARTCHAR backslash
ENCODING 92
SWIDTH 580 0
DWIDTH 15 0
BBX 11 17 2 0
BITMAP
E000
E000
7000
7000
3800
3800
1C00
1C00
0E00
0E00
0700
0700
0380
0380
01C0
01C0
00E0
ENDCHAR

STARTCHAR bracketright
ENCODING 93
SWIDTH 260 0
DWIDTH 7 0
BBX 8 22 -1 -5
BITMAP
3F
3F
0F
0F
0F
0F
0F
0F
1E
1E
1E
1E
1E
1E
3C
3C
3C
3C
3C
3C
FC
FC
ENDCHAR

STARTCHAR asciicircum
ENCODING 94
SWIDTH 620 0
DWIDTH 15 0
BBX 11 11 2 6
BITMAP
0400
0E00
1F00
1B00
3B80
3180
71C0
60C0
E0E0
C060
C060
ENDCHAR

STARTCHAR underscore
ENCODING 95
SWIDTH 500 0
DWIDTH 13 0
BBX 13 3 0 -4
BITMAP
FFF8
FFF8
FFF8
ENDCHAR

STARTCHAR quoteleft
ENCODING 96
SWIDTH 320 0
DWIDTH 8 0
BBX 5 7 3 10
BITMAP
30
70
60
F8
F8
F8
70
ENDCHAR

STARTCHAR a
ENCODING 97
SWIDTH 680 0
DWIDTH 17 0
BBX 16 13 1 0
BITMAP
07CE
1FFE
3E7E
7C3E
783C
F83C
F03C
F07C
F078
F0F8
F9FB
7FFF
1F9E
ENDCHAR

STARTCHAR b
ENCODING 98
SWIDTH 600 0
DWIDTH 15 0
BBX 14 17 1 0
BITMAP
3C00
FC00
FC00
3C00
3DE0
3FF8
7E7C
783C
783C
783C
783C
F07C
F078
F0F8
F1F0
FFE0
EF80
ENDCHAR

STARTCHAR c
ENCODING 99
SWIDTH 560 0
DWIDTH 14 0
BBX 13 13 1 0
BITMAP
07E0
1FF8
3E78
7C78
7830
F800
F000
F000
F000
F030
F9F0
7FE0
1F80
ENDCHAR

STARTCHAR d
ENCODING 100
SWIDTH 680 0
DWIDTH 17 0
BBX 16 17 1 0
BITMAP
001E
007E
007E
001E
07DE
1FFE
3E7C
7C3C
783C
F83C
F03C
F078
F078
F0F8
F9FB
7FFF
1F9E
ENDCHAR

STARTCHAR e
ENCODING 101
SWIDTH 560 0
DWIDTH 14 0
BBX 13 13 1 0
BITMAP
07E0
1FF0
3E78
7C78
7878
F9F0
FFE0
FF00
F000
F030
F9F0
7FE0
1F80
ENDCHAR

STARTCHAR f
ENCODING 102
SWIDTH 420 0
DWIDTH 11 0
BBX 20 22 -5 -5
BITMAP
0007E0
000FF0
001E70
003C00
01FF00
01FF00
007800
007800
007800
007800
007800
00F800
00F000
00F000
00F000
00F000
01F000
01E000
61E000
F3C000
FF8000
7E0000
ENDCHAR

STARTCHAR g
ENCODING 103
SWIDTH 620 0
DWIDTH 16 0
BBX 15 18 1 -5
BITMAP
07CE
1FFE
3E7E
7C3E
783C
F03C
F03C
F03C
F078
F0F8
F9F8
7FF8
1F78
0078
60F0
F1F0
FFE0
7F80
ENDCHAR

STARTCHAR h
ENCODING 104
SWIDTH 700 0
DWIDTH 17 0
BBX 16 17 1 0
BITMAP
3C00
FC00
FC00
3C00
3DF8
3FFC
7FFC
7C3C
7C3C
783C
787C
F07C
F078
F078
F07B
F07F
F01E
ENDCHAR

STARTCHAR i
ENCODING 105
SWIDTH 380 0
DWIDTH 9 0
BBX 7 17 1 0
BITMAP
1C
3E
1C
00
3C
FC
FC
3C
3C
78
78
78
78
F0
F6
FE
3C
ENDCHAR

STARTCHAR j
ENCODING 106
SWIDTH 320 0
DWIDTH 8 0
BBX 12 22 -3 -5
BITMAP
00E0
01F0
00E0
0000
01E0
07E0
07E0
03E0
03C0
03C0
03C0
03C0
03C0
0780
0780
0780
0780
0780
CF80
EF00
FE00
7C00
ENDCHAR

STARTCHAR k
ENCODING 107
SWIDTH 700 0
DWIDTH 17 0
BBX 15 17 1 0
BITMAP
3C00
FC00
FC00
3C00
3C1C
3C7E
78FE
79CC
7B80
7F80
7FC0
FBE0
F3E0
F1F0
F1FE
F0FE
F078
ENDCHAR

STARTCHAR l
ENCODING 108
SWIDTH 380 0
DWIDTH 8 0
BBX 7 17 1 0
BITMAP
3C
FC
FC
3C
3C
3C
78
78
78
78
78
F0
F0
F0
F6
FE
3C
ENDCHAR

STARTCHAR m
ENCODING 109
SWIDTH 960 0
DWIDTH 24 0
BBX 23 13 1 0
BITMAP
3CF3F0
FFFFF8
FFFFF8
3C7C78
3C7878
787878
7878F8
7878F8
78F0F0
F0F0F0
F0F0F6
F0F0FE
F0F03C
ENDCHAR

STARTCHAR n
ENCODING 110
SWIDTH 680 0
DWIDTH 17 0
BBX 16 13 1 0
BITMAP
3CF8
FFFC
FFFC
3C3C
3C3C
783C
787C
787C
7878
F078
F07B
F07F
F01E
ENDCHAR

STARTCHAR o
ENCODING 111
SWIDTH 600 0
DWIDTH 15 0
BBX 14 13 1 0
BITMAP
07E0
1FF8
3E7C
7C3C
783C
F83C
F03C
F07C
F078
F0F8
F9F0
7FE0
1F80
ENDCHAR

STARTCHAR p
ENCODING 112
SWIDTH 660 0
DWIDTH 17 0
BBX 16 18 0 -5
BITMAP
0F78
3FFE
3FDF
0F8F
0F0F
0F0F
1E0F
1E1F
1E1E
1E3E
1FFC
3FF8
3CE0
3C00
3C00
7C00
FE00
FE00
ENDCHAR

STARTCHAR q
ENCODING 113
SWIDTH 620 0
DWIDTH 15 0
BBX 14 18 1 -5
BITMAP
07FC
1FFC
3EF8
7C78
7878
F878
F078
F0F8
F0F0
F1F0
FBF0
7FF0
1EF0
00F0
00F0
01F0
03F8
03F8
ENDCHAR

STARTCHAR r
ENCODING 114
SWIDTH 500 0
DWIDTH 12 0
BBX 12 13 1 0
BITMAP
3CE0
FFF0
FFF0
3C70
3C00
7800
7800
7800
7800
F000
F000
F000
F000
ENDCHAR

STARTCHAR s
ENCODING 115
SWIDTH 540 0
DWIDTH 13 0
BBX 12 13 0 0
BITMAP
0FC0
3FF0
78F0
7870
7E00
7F80
3FE0
0FF0
01F0
E0F0
F1F0
7FE0
3F80
ENDCHAR

STARTCHAR t
ENCODING 116
SWIDTH 440 0
DWIDTH 11 0
BBX 10 17 1 0
BITMAP
0E00
0E00
1E00
3E00
FFC0
FFC0
3C00
3C00
3C00
3C00
7C00
7800
7800
7980
7F80
7F00
3C00
ENDCHAR

STARTCHAR u
ENCODING 117
SWIDTH 680 0
DWIDTH 17 0
BBX 15 13 1 0
BITMAP
3C3C
FC3C
FC3C
3C3C
3C3C
7878
7878
7878
7878
78F0
79F6
7FFE
3E3C
ENDCHAR

STARTCHAR v
ENCODING 118
SWIDTH 540 0
DWIDTH 14 0
BBX 13 13 1 0
BITMAP
3C70
FCF8
FCF8
3C78
3C38
7838
7838
7870
7870
78E0
79E0
7FC0
3F00
ENDCHAR

STARTCHAR w
ENCODING 119
SWIDTH 860 0
DWIDTH 21 0
BBX 20 13 1 0
BITMAP
3C78E0
FC79F0
FC79F0
3C78F0
3C7870
78F070
78F070
78F0E0
78F0E0
78F1C0
79F3C0
7FFF80
3E3E00
ENDCHAR

STARTCHAR x
ENCODING 120
SWIDTH 620 0
DWIDTH 15 0
BBX 16 13 0 0
BITMAP
0E0E
7E1F
7F3F
1F30
0F60
07E0
07C0
07E0
0FE0
1DF0
F8FE
F8FE
7078
ENDCHAR

STARTCHAR y
ENCODING 121
SWIDTH 600 0
DWIDTH 15 0
BBX 15 18 0 -5
BITMAP
1E1E
7E1E
7E1E
1E1E
1E1E
3C3C
3C3C
3C3C
3C3C
3C78
3CF8
3FF8
1F78
0078
60F0
F1F0
FFE0
7F80
ENDCHAR

STARTCHAR z
ENCODING 122
SWIDTH 560 0
DWIDTH 14 0
BBX 13 13 1 0
BITMAP
3FF8
7FF8
78F8
70F0
31E0
03C0
0780
0F00
1E30
3C78
7C78
FFF0
FFE0
ENDCHAR

STARTCHAR braceleft
ENCODING 123
SWIDTH 300 0
DWIDTH 8 0
BBX 9 22 0 -5
BITMAP
0380
0700
0E00
0E00
0E00
1C00
1C00
1C00
3800
7000
E000
7000
3800
3800
3800
3800
7000
7000
7000
7000
3800
1C00
ENDCHAR

STARTCHAR bar
ENCODING 124
SWIDTH 620 0
DWIDTH 15 0
BBX 3 18 6 0
BITMAP
E0
E0
E0
E0
E0
E0
E0
E0
E0
E0
E0
E0
E0
E0
E0
E0
E0
E0
ENDCHAR

STARTCHAR braceright
ENCODING 125
SWIDTH 300 0
DWIDTH 8 0
BBX 9 22 -1 -5
BITMAP
1C00
0E00
0700
0700
0700
0700
0E00
0E00
0E00
0E00
0700
0380
0700
0E00
1C00
1C00
1C00
3800
3800
3800
7000
E000
ENDCHAR

STARTCHAR asciitilde
ENCODING 126
SWIDTH 620 0
DWIDTH 15 0
BBX 13 5 1 4
BITMAP
3C10
7F38
FFF8
E7F0
40E0
ENDCHAR

STARTCHAR exclamdown
ENCODING 161
SWIDTH 320 0
DWIDTH 8 0
BBX 7 17 1 -4
BITMAP
1C
3E
3E
3E
1C
00
18
18
38
38
78
7C
FC
FC
FC
F8
70
ENDCHAR

STARTCHAR cent
ENCODING 162
SWIDTH 680 0
DWIDTH 17 0
BBX 12 15 3 2
BITMAP
0180
0180
0FE0
1FF0
7CF0
78F0
F060
F000
F000
F060
F8E0
7FC0
3F80
0600
0600
ENDCHAR

STARTCHAR sterling
ENCODING 163
SWIDTH 680 0
DWIDTH 17 0
BBX 18 17 0 0
BITMAP
003F00
007F80
00FBC0
00F3C0
01E3C0
01E180
0FFC00
0FFC00
03C000
03C000
03C000
038700
7B8780
FFE380
CFFF80
FF7F00
7C3E00
ENDCHAR

STARTCHAR currency
ENCODING 164
SWIDTH 680 0
DWIDTH 17 0
BBX 11 12 3 2
BITMAP
CE60
FFE0
7FC0
71C0
E0E0
E0E0
E0E0
E0E0
71C0
7FC0
FFE0
CE60
ENDCHAR

STARTCHAR yen
ENCODING 165
SWIDTH 680 0
DWIDTH 17 0
BBX 17 17 1 0
BITMAP
FF1F80
FF1F80
3C0E00
1E1C00
1E3800
0F7000
7FFE00
7FFE00
07C000
07C000
FFFC00
FFFC00
078000
078000
0F8000
3FE000
3FE000
ENDCHAR

STARTCHAR brokenbar
ENCODING 166
SWIDTH 620 0
DWIDTH 15 0
BBX 3 18 6 0
BITMAP
E0
E0
E0
E0
E0
E0
00
00
00
00
00
E0
E0
E0
E0
E0
E0
E0
ENDCHAR

STARTCHAR section
ENCODING 167
SWIDTH 620 0
DWIDTH 16 0
BBX 14 20 1 -3
BITMAP
03F8
0FFC
1E3C
1C3C
1E18
1F80
0FF0
1FF8
3CFC
383C
3C1C
3F38
1FF0
07F8
61F8
F078
F038
F070
7FE0
1F80
ENDCHAR

STARTCHAR dieresis
ENCODING 168
SWIDTH 520 0
DWIDTH 13 0
BBX 9 4 4 14
BITMAP
7380
F780
F780
E700
ENDCHAR

STARTCHAR copyright
ENCODING 169
SWIDTH 780 0
DWIDTH 20 0
BBX 17 17 2 0
BITMAP
07F000
1FFC00
3C1E00
300600
73E700
E77380
EE3380
CC0180
CC0180
CC0180
EE1380
E73380
77E700
31C600
3C1E00
1FFC00
07F000
ENDCHAR

STARTCHAR ordfeminine
ENCODING 170
SWIDTH 440 0
DWIDTH 11 0
BBX 10 9 1 8
BITMAP
1D80
3F80
7380
7380
7780
3FC0
1980
0000
FF80
ENDCHAR

STARTCHAR guillemotleft
ENCODING 171
SWIDTH 380 0
DWIDTH 10 0
BBX 10 10 1 3
BITMAP
18C0
18C0
3180
7380
E700
E700
6300
7380
3180
3180
ENDCHAR

STARTCHAR logicalnot
ENCODING 172
SWIDTH 620 0
DWIDTH 15 0
BBX 13 8 1 3
BITMAP
FFF8
FFF8
FFF8
0038
0038
0038
0038
0038
ENDCHAR

STARTCHAR hyphen
ENCODING 173
SWIDTH 280 0
DWIDTH 7 0
BBX 6 3 0 5
BITMAP
7C
FC
F8
ENDCHAR

STARTCHAR registered
ENCODING 174
SWIDTH 780 0
DWIDTH 20 0
BBX 17 17 2 0
BITMAP
07F000
1FFC00
3C1E00
300600
7FE700
E63380
E63380
C66180
C7C180
C6C180
E66380
E63380
7F3F00
300600
3C1E00
1FFC00
07F000
ENDCHAR

STARTCHAR macron
ENCODING 175
SWIDTH 480 0
DWIDTH 12 0
BBX 9 2 5 15
BITMAP
FF80
FF80
ENDCHAR

STARTCHAR degree
ENCODING 176
SWIDTH 400 0
DWIDTH 9 0
BBX 8 7 0 10
BITMAP
3C
66
C3
C3
C3
66
3C
ENDCHAR

STARTCHAR plusminus
ENCODING 177
SWIDTH 600 0
DWIDTH 15 0
BBX 13 13 1 0
BITMAP
0700
0700
0700
FFF8
FFF8
FFF8
0700
0700
0700
0000
FFF8
FFF8
FFF8
ENDCHAR

STARTCHAR twosuperior
ENCODING 178
SWIDTH 680 0
DWIDTH 10 0
BBX 9 10 0 7
BITMAP
1F00
3F80
7380
6380
0700
0E00
1C00
3980
7F00
FF00
ENDCHAR

STARTCHAR threesuperior
ENCODING 179
SWIDTH 680 0
DWIDTH 10 0
BBX 9 10 1 7
BITMAP
1F00
3F80
6380
6300
1E00
0700
C700
C700
FE00
7C00
ENDCHAR

STARTCHAR acute
ENCODING 180
SWIDTH 340 0
DWIDTH 9 0
BBX 6 5 3 13
BITMAP
1C
3C
7C
F0
C0
ENDCHAR

STARTCHAR mu
ENCODING 181
SWIDTH 680 0
DWIDTH 17 0
BBX 16 18 0 -5
BITMAP
1E1E
7E1E
7E1E
1E1E
1E1E
3C3C
3C3C
3C3C
3C3C
7878
78FB
7FFF
7F1E
F800
F800
F800
F800
7000
ENDCHAR

STARTCHAR paragraph
ENCODING 182
SWIDTH 680 0
DWIDTH 17 0
BBX 15 22 2 -5
BITMAP
0FFE
3FFE
7CEE
78EE
F9CE
F1CE
F1DC
F1DC
F1DC
F9DC
7FDC
7F9C
1FB8
03B8
03B8
03B8
0738
0738
0770
0F70
1FFC
1FFC
ENDCHAR

STARTCHAR periodcentered
ENCODING 183
SWIDTH 340 0
DWIDTH 8 0
BBX 5 5 1 4
BITMAP
70
F8
F8
F8
70
ENDCHAR

STARTCHAR cedilla
ENCODING 184
SWIDTH 360 0
DWIDTH 9 0
BBX 5 6 2 -6
BITMAP
60
70
38
98
F8
70
ENDCHAR

STARTCHAR onesuperior
ENCODING 185
SWIDTH 680 0
DWIDTH 10 0
BBX 7 10 2 7
BITMAP
0E
7E
1E
1C
1C
3C
38
38
FE
FE
ENDCHAR

STARTCHAR ordmasculine
ENCODING 186
SWIDTH 440 0
DWIDTH 11 0
BBX 10 9 1 8
BITMAP
0780
1FC0
39C0
39C0
3980
3F80
1E00
0000
FFC0
ENDCHAR

STARTCHAR guillemotright
ENCODING 187
SWIDTH 380 0
DWIDTH 10 0
BBX 10 10 1 3
BITMAP
6300
6300
7380
3180
39C0
39C0
7380
6300
C600
C600
ENDCHAR

STARTCHAR onequarter
ENCODING 188
SWIDTH 120 0
DWIDTH 25 0
BBX 21 17 2 0
BITMAP
0E0380
7E0380
1E0700
1C0E00
1C0E00
3C1C00
383800
383070
FE70F0
FEE1F0
00E360
01C6E0
038CE0
039FF8
071FF0
0E01C0
0E03E0
ENDCHAR

STARTCHAR onehalf
ENCODING 189
SWIDTH 120 0
DWIDTH 25 0
BBX 21 17 2 0
BITMAP
0E0380
7E0380
1E0700
1C0E00
1C0E00
3C1C00
383800
3839F0
FE73F8
FEE738
00E638
01C070
0380E0
0381C0
070398
0E07F0
0E0FF0
ENDCHAR

STARTCHAR threequarters
ENCODING 190
SWIDTH 120 0
DWIDTH 25 0
BBX 21 17 2 0
BITMAP
1F0380
3F8380
638700
630E00
1E0E00
071C00
C73800
C73070
FE70F0
7CE1F0
00E360
01C6E0
038CE0
039FF8
071FF0
0E01C0
0E03E0
ENDCHAR

STARTCHAR questiondown
ENCODING 191
SWIDTH 620 0
DWIDTH 15 0
BBX 12 17 2 -4
BITMAP
0380
07C0
07C0
07C0
0380
0000
0300
0F00
1E00
3C00
7860
F8F0
F0F0
F0F0
F9E0
7FC0
3F80
ENDCHAR

STARTCHAR Agrave
ENCODING 192
SWIDTH 720 0
DWIDTH 18 0
BBX 19 18 -1 0
BITMAP
00E000
00F000
00F800
003C00
000C00
003800
007800
00FC00
00FC00
01DE00
038E00
070F00
07FF00
0FFF80
1C0780
3C07C0
FE1FE0
FE1FE0
ENDCHAR

STARTCHAR Aacute
ENCODING 193
SWIDTH 720 0
DWIDTH 18 0
BBX 19 18 0 0
BITMAP
000E00
001E00
003E00
007800
006000
003800
007800
00FC00
00FC00
01DE00
038E00
070F00
07FF00
0FFF80
1C0780
3C07C0
FE1FE0
FE1FE0
ENDCHAR

STARTCHAR Acircumflex
ENCODING 194
SWIDTH 720 0
DWIDTH 18 0
BBX 19 18 -1 0
BITMAP
001800
007E00
00FF00
00C300
000000
003800
007800
00FC00
00FC00
01DE00
038E00
070F00
07FF00
0FFF80
1C0780
3C07C0
FE1FE0
FE1FE0
ENDCHAR

STARTCHAR Atilde
ENCODING 195
SWIDTH 720 0
DWIDTH 18 0
BBX 19 17 -1 0
BITMAP
007D00
00FF00
00CE00
000000
003800
007800
00FC00
00FC00
01DE00
038E00
070F00
07FF00
0FFF80
1C0780
3C07C0
FE1FE0
FE1FE0
ENDCHAR

STARTCHAR Adieresis
ENCODING 196
SWIDTH 720 0
DWIDTH 18 0
BBX 19 18 -1 0
BITMAP
007380
00F780
00F780
00E700
000000
003800
007800
00FC00
00FC00
01DE00
038E00
070F00
07FF00
0FFF80
1C0780
3C07C0
FE1FE0
FE1FE0
ENDCHAR

STARTCHAR Aring
ENCODING 197
SWIDTH 720 0
DWIDTH 18 0
BBX 19 18 -1 0
BITMAP
001800
003C00
006600
006600
003C00
003800
007800
00FC00
00FC00
01DE00
038E00
070F00
07FF00
0FFF80
1C0780
3C07C0
FE1FE0
FE1FE0
ENDCHAR

STARTCHAR AE
ENCODING 198
SWIDTH 1140 0
DWIDTH 28 0
BBX 29 17 -1 0
BITMAP
0001FFE0
0003FFF0
0007F0F0
000FF038
001FE318
003BE300
0073E700
00F3FF00
00E3FF00
01FFCE00
03FFC600
0707C600
0E07C030
1E07C070
3C0FC1E0
FF1FFFE0
FF1FFFC0
ENDCHAR

STARTCHAR Ccedilla
ENCODING 199
SWIDTH 700 0
DWIDTH 17 0
BBX 16 23 1 -6
BITMAP
03FB
0FFF
1F1F
3E07
3C07
7C03
7800
7800
F800
F800
F800
F802
7807
7C0F
3E3E
1FFC
0FF0
0300
0380
01C0
04C0
07C0
0380
ENDCHAR

STARTCHAR Egrave
ENCODING 200
SWIDTH 720 0
DWIDTH 18 0
BBX 18 18 0 0
BITMAP
038000
03C000
03E000
00F000
003000
3FFF00
3FFF80
0F0780
0F01C0
0F18C0
0FF800
1FF800
1E3000
1E3180
3C0380
3C0F00
FFFF00
FFFE00
ENDCHAR

STARTCHAR Eacute
ENCODING 201
SWIDTH 720 0
DWIDTH 18 0
BBX 18 18 0 0
BITMAP
003800
007800
00F800
01E000
018000
3FFF00
3FFF80
0F0780
0F01C0
0F18C0
0FF800
1FF800
1E3000
1E3180
3C0380
3C0F00
FFFF00
FFFE00
ENDCHAR

STARTCHAR Ecircumflex
ENCODING 202
SWIDTH 720 0
DWIDTH 18 0
BBX 18 18 0 0
BITMAP
006000
01F800
03FC00
030C00
000000
3FFF00
3FFF80
0F0780
0F01C0
0F18C0
0FF800
1FF800
1E3000
1E3180
3C0380
3C0F00
FFFF00
FFFE00
ENDCHAR

STARTCHAR Edieresis
ENCODING 203
SWIDTH 720 0
DWIDTH 18 0
BBX 18 18 0 0
BITMAP
039C00
07BC00
07BC00
073800
000000
3FFF00
3FFF80
0F0780
0F01C0
0F18C0
0FF800
1FF800
1E3000
1E3180
3C0380
3C0F00
FFFF00
FFFE00
ENDCHAR

STARTCHAR Igrave
ENCODING 204
SWIDTH 380 0
DWIDTH 10 0
BBX 11 18 0 0
BITMAP
1C00
1E00
1F00
0780
0180
3FE0
3FE0
0F80
0F80
0F80
1F00
1F00
1F00
3E00
3E00
3E00
FF80
FF80
ENDCHAR

STARTCHAR Iacute
ENCODING 205
SWIDTH 380 0
DWIDTH 10 0
BBX 11 18 0 0
BITMAP
01C0
03C0
07C0
0F00
0C00
3FE0
3FE0
0F80
0F80
0F80
1F00
1F00
1F00
3E00
3E00
3E00
FF80
FF80
ENDCHAR

STARTCHAR Icircumflex
ENCODING 206
SWIDTH 380 0
DWIDTH 10 0
BBX 11 18 0 0
BITMAP
0300
0FC0
1FE0
1860
0000
3FE0
3FE0
0F80
0F80
0F80
1F00
1F00
1F00
3E00
3E00
3E00
FF80
FF80
ENDCHAR

STARTCHAR Idieresis
ENCODING 207
SWIDTH 380 0
DWIDTH 10 0
BBX 12 18 0 0
BITMAP
0E70
1EF0
1EF0
1CE0
0000
3FE0
3FE0
0F80
0F80
0F80
1F00
1F00
1F00
3E00
3E00
3E00
FF80
FF80
ENDCHAR

STARTCHAR Eth
ENCODING 208
SWIDTH 760 0
DWIDTH 19 0
BBX 19 17 0 0
BITMAP
3FFE00
3FFF00
0F8F80
0F87C0
0F03C0
0F03E0
0F03E0
7FE3E0
7FE3E0
1E03C0
1E03C0
1E07C0
3E0780
3E0F80
3E1F00
FFFE00
FFF800
ENDCHAR

STARTCHAR Ntilde
ENCODING 209
SWIDTH 740 0
DWIDTH 18 0
BBX 19 17 0 0
BITMAP
00FA00
01FE00
019C00
000000
3F07E0
3F87E0
0F81C0
0FC180
0DE180
18E300
18F300
187B00
303B00
303E00
301E00
FE1E00
FE0E00
ENDCHAR

STARTCHAR Ograve
ENCODING 210
SWIDTH 760 0
DWIDTH 19 0
BBX 18 18 1 0
BITMAP
038000
03C000
03E000
00F000
003000
03FC00
0FFE00
1F1F00
3E0F80
7C07C0
7C07C0
F807C0
F80F80
F80F80
7C1F00
3E3E00
1FFC00
0FF000
ENDCHAR

STARTCHAR Oacute
ENCODING 211
SWIDTH 760 0
DWIDTH 19 0
BBX 18 18 1 0
BITMAP
003800
007800
00F800
01E000
018000
03FC00
0FFE00
1F1F00
3E0F80
7C07C0
7C07C0
F807C0
F80F80
F80F80
7C1F00
3E3E00
1FFC00
0FF000
ENDCHAR

STARTCHAR Ocircumflex
ENCODING 212
SWIDTH 760 0
DWIDTH 19 0
BBX 18 18 1 0
BITMAP
006000
01F800
03FC00
030C00
000000
03FC00
0FFE00
1F1F00
3E0F80
7C07C0
7C07C0
F807C0
F80F80
F80F80
7C1F00
3E3E00
1FFC00
0FF000
ENDCHAR

STARTCHAR Otilde
ENCODING 213
SWIDTH 760 0
DWIDTH 19 0
BBX 18 17 1 0
BITMAP
01F400
03FC00
033800
000000
03FC00
0FFE00
1F1F00
3E0F80
7C07C0
7C07C0
F807C0
F80F80
F80F80
7C1F00
3E3E00
1FFC00
0FF000
ENDCHAR

STARTCHAR Odieresis
ENCODING 214
SWIDTH 760 0
DWIDTH 19 0
BBX 18 18 1 0
BITMAP
01CE00
03DE00
03DE00
039C00
000000
03FC00
0FFE00
1F1F00
3E0F80
7C07C0
7C07C0
F807C0
F80F80
F80F80
7C1F00
3E3E00
1FFC00
0FF000
ENDCHAR

STARTCHAR multiply
ENCODING 215
SWIDTH 600 0
DWIDTH 15 0
BBX 13 13 1 0
BITMAP
2020
7070
F8F8
7DF0
3FE0
1FC0
0F80
1FC0
3FE0
7DF0
F8F8
7070
2020
ENDCHAR

STARTCHAR Oslash
ENCODING 216
SWIDTH 760 0
DWIDTH 19 0
BBX 18 19 1 -1
BITMAP
0000C0
03FDC0
0FFF80
1F1F00
3E0F80
3C1F80
7C3FC0
7877C0
78E7C0
F8C7C0
F9C780
FB8780
FF0F80
7E0F00
7C1F00
3E3E00
7FFC00
EFF000
C00000
ENDCHAR

STARTCHAR Ugrave
ENCODING 217
SWIDTH 740 0
DWIDTH 18 0
BBX 17 18 2 0
BITMAP
070000
078000
07C000
01E000
006000
FF9F80
FF9F80
3E0700
3E0600
7C0600
7C0C00
F80C00
F81C00
F81800
FC3800
7FF000
7FE000
1F8000
ENDCHAR

STARTCHAR Uacute
ENCODING 218
SWIDTH 740 0
DWIDTH 18 0
BBX 17 18 2 0
BITMAP
001C00
003C00
007C00
00F000
00C000
FF9F80
FF9F80
3E0700
3E0600
7C0600
7C0C00
F80C00
F81C00
F81800
FC3800
7FF000
7FE000
1F8000
ENDCHAR

STARTCHAR Ucircumflex
ENCODING 219
SWIDTH 740 0
DWIDTH 18 0
BBX 17 18 2 0
BITMAP
006000
01F800
03FC00
030C00
000000
FF9F80
FF9F80
3E0700
3E0600
7C0600
7C0C00
F80C00
F81C00
F81800
FC3800
7FF000
7FE000
1F8000
ENDCHAR

STARTCHAR Udieresis
ENCODING 220
SWIDTH 740 0
DWIDTH 18 0
BBX 17 18 2 0
BITMAP
039C00
07BC00
07BC00
073800
000000
FF9F80
FF9F80
3E0700
3E0600
7C0600
7C0C00
F80C00
F81C00
F81800
FC3800
7FF000
7FE000
1F8000
ENDCHAR

STARTCHAR Yacute
ENCODING 221
SWIDTH 660 0
DWIDTH 17 0
BBX 18 18 1 0
BITMAP
001C00
003C00
007C00
00F000
00C000
FF9FC0
FF9FC0
3E0F00
1E0E00
0F1C00
07B800
03F000
03E000
03C000
03C000
03C000
1FF000
1FF000
ENDCHAR

STARTCHAR Thorn
ENCODING 222
SWIDTH 640 0
DWIDTH 16 0
BBX 16 17 0 0
BITMAP
3FC0
3FC0
0F00
0F00
0FFC
0FFE
1F1F
1E0F
1E0F
1E1E
1E7C
3FF8
3FE0
3C00
3C00
FF80
FF80
ENDCHAR

STARTCHAR germandbls
ENCODING 223
SWIDTH 660 0
DWIDTH 17 0
BBX 22 22 -5 -5
BITMAP
0007E0
000FF0
001E38
003C38
01FC78
01FCF0
0079E0
0079F0
0078F8
00787C
00783C
00F83C
00F03C
00F078
00F0F8
00F7F0
01F7C0
01E000
61E000
F3C000
FF8000
7E0000
ENDCHAR

STARTCHAR agrave
ENCODING 224
SWIDTH 680 0
DWIDTH 17 0
BBX 16 18 1 0
BITMAP
0700
0780
07C0
01E0
0060
07CE
1FFE
3E7E
7C3E
783C
F83C
F03C
F07C
F078
F0F8
F9FB
7FFF
1F9E
ENDCHAR

STARTCHAR aacute
ENCODING 225
SWIDTH 680 0
DWIDTH 17 0
BBX 16 18 1 0
BITMAP
0070
00F0
01F0
03C0
0300
07CE
1FFE
3E7E
7C3E
783C
F83C
F03C
F07C
F078
F0F8
F9FB
7FFF
1F9E
ENDCHAR

STARTCHAR acircumflex
ENCODING 226
SWIDTH 680 0
DWIDTH 17 0
BBX 16 18 1 0
BITMAP
00C0
03F0
07F8
0618
0000
07CE
1FFE
3E7E
7C3E
783C
F83C
F03C
F07C
F078
F0F8
F9FB
7FFF
1F9E
ENDCHAR

STARTCHAR atilde
ENCODING 227
SWIDTH 680 0
DWIDTH 17 0
BBX 16 17 1 0
BITMAP
03E8
07F8
0670
0000
07CE
1FFE
3E7E
7C3E
783C
F83C
F03C
F07C
F078
F0F8
F9FB
7FFF
1F9E
ENDCHAR

STARTCHAR adieresis
ENCODING 228
SWIDTH 680 0
DWIDTH 17 0
BBX 16 18 1 0
BITMAP
039C
07BC
07BC
0738
0000
07CE
1FFE
3E7E
7C3E
783C
F83C
F03C
F07C
F078
F0F8
F9FB
7FFF
1F9E
ENDCHAR

STARTCHAR aring
ENCODING 229
SWIDTH 680 0
DWIDTH 17 0
BBX 16 18 1 0
BITMAP
00C0
01E0
0330
0330
01E0
07CE
1FFE
3E7E
7C3E
783C
F83C
F03C
F07C
F078
F0F8
F9FB
7FFF
1F9E
ENDCHAR

STARTCHAR ae
ENCODING 230
SWIDTH 880 0
DWIDTH 22 0
BBX 21 13 1 0
BITMAP
0FC7E0
3FFFF0
78FE78
707C78
00F878
03F1F0
1FFFE0
7E7F00
F87000
F0F030
F3F9F0
FFFFE0
7F1F80
ENDCHAR

STARTCHAR ccedilla
ENCODING 231
SWIDTH 560 0
DWIDTH 14 0
BBX 13 19 1 -6
BITMAP
07E0
1FF8
3E78
7C78
7830
F800
F000
F000
F000
F030
F9F0
7FE0
1F80
0C00
0E00
0700
1300
1F00
0E00
ENDCHAR

STARTCHAR egrave
ENCODING 232
SWIDTH 560 0
DWIDTH 14 0
BBX 13 18 1 0
BITMAP
0E00
0F00
0F80
03C0
00C0
07E0
1FF0
3E78
7C78
7878
F9F0
FFE0
FF00
F000
F030
F9F0
7FE0
1F80
ENDCHAR

STARTCHAR eacute
ENCODING 233
SWIDTH 560 0
DWIDTH 14 0
BBX 13 18 1 0
BITMAP
00E0
01E0
03E0
0780
0600
07E0
1FF0
3E78
7C78
7878
F9F0
FFE0
FF00
F000
F030
F9F0
7FE0
1F80
ENDCHAR

STARTCHAR ecircumflex
ENCODING 234
SWIDTH 560 0
DWIDTH 14 0
BBX 13 18 1 0
BITMAP
0180
07E0
0FF0
0C30
0000
07E0
1FF0
3E78
7C78
7878
F9F0
FFE0
FF00
F000
F030
F9F0
7FE0
1F80
ENDCHAR

STARTCHAR edieresis
ENCODING 235
SWIDTH 560 0
DWIDTH 14 0
BBX 13 18 1 0
BITMAP
0738
0F78
0F78
0E70
0000
07E0
1FF0
3E78
7C78
7878
F9F0
FFE0
FF00
F000
F030
F9F0
7FE0
1F80
ENDCHAR

STARTCHAR igrave
ENCODING 236
SWIDTH 380 0
DWIDTH 9 0
BBX 7 18 1 0
BITMAP
E0
F0
F8
3C
0C
3C
FC
FC
3C
3C
78
78
78
78
F0
F6
FE
3C
ENDCHAR

STARTCHAR iacute
ENCODING 237
SWIDTH 380 0
DWIDTH 9 0
BBX 7 18 1 0
BITMAP
0E
1E
3E
78
60
3C
FC
FC
3C
3C
78
78
78
78
F0
F6
FE
3C
ENDCHAR

STARTCHAR icircumflex
ENCODING 238
SWIDTH 380 0
DWIDTH 9 0
BBX 8 18 1 0
BITMAP
18
7E
FF
C3
00
3C
FC
FC
3C
3C
78
78
78
78
F0
F6
FE
3C
ENDCHAR

STARTCHAR idieresis
ENCODING 239
SWIDTH 380 0
DWIDTH 9 0
BBX 9 18 1 0
BITMAP
7380
F780
F780
E700
0000
3C00
FC00
FC00
3C00
3C00
7800
7800
7800
7800
F000
F600
FE00
3C00
ENDCHAR

STARTCHAR eth
ENCODING 240
SWIDTH 600 0
DWIDTH 15 0
BBX 14 18 1 0
BITMAP
0300
07B8
03E0
0EE0
1870
07F8
1FF8
3E7C
7C3C
783C
F83C
F03C
F07C
F078
F0F8
F9F0
7FE0
1F80
ENDCHAR

STARTCHAR ntilde
ENCODING 241
SWIDTH 680 0
DWIDTH 17 0
BBX 16 17 1 0
BITMAP
07D0
0FF0
0CE0
0000
3CF8
FFFC
FFFC
3C3C
3C3C
783C
787C
787C
7878
F078
F07B
F07F
F01E
ENDCHAR

STARTCHAR ograve
ENCODING 242
SWIDTH 600 0
DWIDTH 15 0
BBX 14 18 1 0
BITMAP
0700
0780
07C0
01E0
0060
07E0
1FF8
3E7C
7C3C
783C
F83C
F03C
F07C
F078
F0F8
F9F0
7FE0
1F80
ENDCHAR

STARTCHAR oacute
ENCODING 243
SWIDTH 600 0
DWIDTH 15 0
BBX 14 18 1 0
BITMAP
00E0
01E0
03E0
0780
0600
07E0
1FF8
3E7C
7C3C
783C
F83C
F03C
F07C
F078
F0F8
F9F0
7FE0
1F80
ENDCHAR

STARTCHAR ocircumflex
ENCODING 244
SWIDTH 600 0
DWIDTH 15 0
BBX 14 18 1 0
BITMAP
0180
07E0
0FF0
0C30
0000
07E0
1FF8
3E7C
7C3C
783C
F83C
F03C
F07C
F078
F0F8
F9F0
7FE0
1F80
ENDCHAR

STARTCHAR otilde
ENCODING 245
SWIDTH 600 0
DWIDTH 15 0
BBX 14 17 1 0
BITMAP
07D0
0FF0
0CE0
0000
07E0
1FF8
3E7C
7C3C
783C
F83C
F03C
F07C
F078
F0F8
F9F0
7FE0
1F80
ENDCHAR

STARTCHAR odieresis
ENCODING 246
SWIDTH 600 0
DWIDTH 15 0
BBX 14 18 1 0
BITMAP
0738
0F78
0F78
0E70
0000
07E0
1FF8
3E7C
7C3C
783C
F83C
F03C
F07C
F078
F0F8
F9F0
7FE0
1F80
ENDCHAR

STARTCHAR divide
ENCODING 247
SWIDTH 600 0
DWIDTH 15 0
BBX 13 13 1 0
BITMAP
0700
0F80
0F80
0700
0000
FFF8
FFF8
FFF8
0000
0700
0F80
0F80
0700
ENDCHAR

STARTCHAR oslash
ENCODING 248
SWIDTH 600 0
DWIDTH 15 0
BBX 14 17 1 -2
BITMAP
0004
000C
07F8
1FF8
3E7C
7C7C
78FC
F9BC
F33C
F67C
FC78
F8F8
F9F0
7FE0
7F80
C000
8000
ENDCHAR

STARTCHAR ugrave
ENCODING 249
SWIDTH 680 0
DWIDTH 17 0
BBX 15 18 1 0
BITMAP
0E00
0F00
0F80
03C0
00C0
3C3C
FC3C
FC3C
3C3C
3C3C
7878
7878
7878
7878
78F0
79F6
7FFE
3E3C
ENDCHAR

STARTCHAR uacute
ENCODING 250
SWIDTH 680 0
DWIDTH 17 0
BBX 15 18 1 0
BITMAP
0070
00F0
01F0
03C0
0300
3C3C
FC3C
FC3C
3C3C
3C3C
7878
7878
7878
7878
78F0
79F6
7FFE
3E3C
ENDCHAR

STARTCHAR ucircumflex
ENCODING 251
SWIDTH 680 0
DWIDTH 17 0
BBX 15 18 1 0
BITMAP
00C0
03F0
07F8
0618
0000
3C3C
FC3C
FC3C
3C3C
3C3C
7878
7878
7878
7878
78F0
79F6
7FFE
3E3C
ENDCHAR

STARTCHAR udieresis
ENCODING 252
SWIDTH 680 0
DWIDTH 17 0
BBX 15 18 1 0
BITMAP
0738
0F78
0F78
0E70
0000
3C3C
FC3C
FC3C
3C3C
3C3C
7878
7878
7878
7878
78F0
79F6
7FFE
3E3C
ENDCHAR

STARTCHAR yacute
ENCODING 253
SWIDTH 600 0
DWIDTH 15 0
BBX 15 23 0 -5
BITMAP
0038
0078
00F8
01E0
0180
1E1E
7E1E
7E1E
1E1E
1E1E
3C3C
3C3C
3C3C
3C3C
3C78
3CF8
3FF8
1F78
0078
60F0
F1F0
FFE0
7F80
ENDCHAR

STARTCHAR thorn
ENCODING 254
SWIDTH 660 0
DWIDTH 17 0
BBX 16 22 0 -5
BITMAP
0780
1F80
1F80
0780
07F8
07FE
079F
0F0F
0F0F
0F0F
0E0F
1E1F
1E1E
1E3E
1FFC
3FF8
3CE0
3C00
3C00
7C00
FE00
FE00
ENDCHAR

STARTCHAR ydieresis
ENCODING 255
SWIDTH 600 0
DWIDTH 15 0
BBX 15 23 0 -5
BITMAP
039C
07BC
07BC
0738
0000
1E1E
7E1E
7E1E
1E1E
1E1E
3C3C
3C3C
3C3C
3C3C
3C78
3CF8
3FF8
1F78
0078
60F0
F1F0
FFE0
7F80
ENDCHAR
ENDFONT
